<mxfile host="app.diagrams.net" modified="2023-08-06T09:24:24.805Z" agent="Mozilla/5.0 (Windows NT 10.0; Win64; x64) AppleWebKit/537.36 (KHTML, like Gecko) Chrome/115.0.0.0 Safari/537.36 Edg/115.0.1901.188" etag="A6imV1PR9gQIUL9h5XO9" version="21.6.6" type="github">
  <diagram name="第 1 页" id="iF_mo3reNgEEiyqgL51-">
    <mxGraphModel dx="996" dy="541" grid="1" gridSize="10" guides="1" tooltips="1" connect="1" arrows="1" fold="1" page="1" pageScale="1" pageWidth="827" pageHeight="1169" math="0" shadow="0">
      <root>
        <mxCell id="0" />
        <mxCell id="1" parent="0" />
        <mxCell id="kmME2GjfkYfGReCQxUAp-1" value="" style="rounded=0;whiteSpace=wrap;html=1;" vertex="1" parent="1">
          <mxGeometry x="350" y="250" width="120" height="60" as="geometry" />
        </mxCell>
        <mxCell id="kmME2GjfkYfGReCQxUAp-2" value="" style="whiteSpace=wrap;html=1;aspect=fixed;" vertex="1" parent="1">
          <mxGeometry x="370" y="240" width="80" height="80" as="geometry" />
        </mxCell>
        <mxCell id="kmME2GjfkYfGReCQxUAp-3" value="" style="shape=hexagon;perimeter=hexagonPerimeter2;whiteSpace=wrap;html=1;fixedSize=1;" vertex="1" parent="1">
          <mxGeometry x="350" y="240" width="120" height="80" as="geometry" />
        </mxCell>
        <mxCell id="kmME2GjfkYfGReCQxUAp-4" value="" style="ellipse;whiteSpace=wrap;html=1;aspect=fixed;" vertex="1" parent="1">
          <mxGeometry x="370" y="240" width="80" height="80" as="geometry" />
        </mxCell>
        <mxCell id="kmME2GjfkYfGReCQxUAp-5" value="" style="triangle;whiteSpace=wrap;html=1;" vertex="1" parent="1">
          <mxGeometry x="380" y="240" width="60" height="80" as="geometry" />
        </mxCell>
        <mxCell id="kmME2GjfkYfGReCQxUAp-6" value="" style="shape=internalStorage;whiteSpace=wrap;html=1;backgroundOutline=1;" vertex="1" parent="1">
          <mxGeometry x="370" y="240" width="80" height="80" as="geometry" />
        </mxCell>
        <mxCell id="kmME2GjfkYfGReCQxUAp-7" value="" style="shape=callout;whiteSpace=wrap;html=1;perimeter=calloutPerimeter;" vertex="1" parent="1">
          <mxGeometry x="350" y="240" width="120" height="80" as="geometry" />
        </mxCell>
      </root>
    </mxGraphModel>
  </diagram>
</mxfile>
